<svg xmlns="http://www.w3.org/2000/svg" viewBox="0 0 512 512" style="enable-background:new 0 0 512 512" xml:space="preserve">
  <path class="jp-icon2" fill="#424242" d="M238.933 366.827c0-5.12-3.413-8.533-8.533-8.533h-42.667c-5.12 0-8.533 3.413-8.533 8.533s3.413 8.533 8.533 8.533H230.4c5.12 0 8.533-3.413 8.533-8.533zm-68.266 51.2H102.4c-5.12 0-8.533 3.413-8.533 8.533s3.413 8.533 8.533 8.533h68.267c5.12 0 8.533-3.413 8.533-8.533s-3.413-8.533-8.533-8.533zM256 409.493h93.867c5.12 0 8.533-3.413 8.533-8.533 0-5.12-3.413-8.533-8.533-8.533H256c-5.12 0-8.533 3.413-8.533 8.533 0 5.12 3.413 8.533 8.533 8.533zm179.2 25.6h-93.867c-5.12 0-8.533 3.413-8.533 8.533s3.413 8.533 8.533 8.533H435.2c5.12 0 8.533-3.413 8.533-8.533s-3.413-8.533-8.533-8.533zm-170.667 25.6H204.8c-5.12 0-8.533 3.413-8.533 8.533s3.413 8.533 8.533 8.533h59.733c5.12 0 8.533-3.413 8.533-8.533s-3.413-8.533-8.533-8.533z"/>
  <path class="jp-icon2" fill="#424242" d="M503.467 307.093H435.2c-24.725 0-49.436 7.016-70.36 19.742-5.597-70.808 9.426-154.036 22.563-187.78 18.207 6.775 33.257 10.172 46.944 10.172 9.387 0 18.773-2.56 26.453-5.12 20.48-8.533 35.84-28.16 50.347-63.147.853-2.56.853-5.12 0-6.827-.853-1.707-2.56-3.413-4.267-4.267-46.401-19.631-77.455-18.103-101.84 7.746.132-34.042-21.785-56.873-68.827-76.866-2.56-.853-5.12-.853-6.827 0s-3.413 2.56-4.267 4.267c-27.029 63.887-13.954 98.684 47.505 127.032-14.708 37.464-29.088 121.374-24.337 192.634-20.115-11.359-43.396-17.586-66.688-17.586h-85.333c-24.725 0-49.436 7.016-70.36 19.742-5.597-70.808 9.426-154.036 22.563-187.78 18.207 6.775 33.258 10.172 46.944 10.172 9.387 0 18.773-2.56 26.453-5.12 20.48-8.533 35.84-28.16 50.347-63.147.853-2.56.853-5.12 0-6.827-.853-1.707-2.56-3.413-4.267-4.267-46.401-19.631-77.455-18.103-101.84 7.746.132-34.042-21.785-56.873-68.827-76.866-2.56-.853-5.12-.853-6.827 0s-3.413 2.56-4.267 4.267C59.158 68.9 72.232 103.697 133.692 132.045c-14.708 37.464-29.088 121.374-24.337 192.634-20.115-11.359-43.396-17.586-66.688-17.586H8.533c-5.12 0-8.533 3.413-8.533 8.533V503.36c0 5.12 3.413 8.533 8.533 8.533h494.933c5.12 0 8.533-3.413 8.533-8.533V315.627c.001-5.12-3.412-8.534-8.532-8.534zM492.373 80.96c-11.947 26.453-23.893 40.96-38.4 46.933-14.507 6.827-33.28 5.12-58.88-4.267 23.04-50.346 47.787-60.586 97.28-42.666zM337.067 19.52c50.347 23.04 60.587 47.787 41.813 96.427-49.493-22.187-60.587-46.934-41.813-96.427zM253.44 80.96c-11.947 26.453-23.893 40.96-38.4 46.933-14.507 6.827-33.28 5.12-58.88-4.267C179.2 73.28 203.947 63.04 253.44 80.96zM98.133 19.52C148.48 42.56 158.72 67.307 140.8 116.8 90.453 93.76 80.213 69.013 98.133 19.52zM17.067 494.827v-34.133H51.2c5.12 0 8.533-3.413 8.533-8.533 0-5.12-3.413-8.533-8.533-8.533H17.067v-59.733h76.8c5.12 0 8.533-3.413 8.533-8.533s-3.413-8.533-8.533-8.533h-76.8V324.16h25.6c25.6 0 51.2 8.533 71.68 23.893 3.413 2.56 6.827 2.56 10.24 0 20.48-15.36 46.08-23.893 71.68-23.893H281.6c25.6 0 51.2 8.533 71.68 23.893 3.413 2.56 6.827 2.56 10.24 0 20.48-15.36 46.08-23.893 71.68-23.893h59.733v68.267H435.2c-5.12 0-8.533 3.413-8.533 8.533 0 5.12 3.413 8.533 8.533 8.533h59.733v85.333H17.067z"/>
</svg>
