<svg xmlns="http://www.w3.org/2000/svg" viewBox="0 0 32 32" style="enable-background:new 0 0 32 32" xml:space="preserve">
  <path class="jp-icon2" fill="#424242" d="M16 31.36C7.53 31.36.64 24.47.64 16S7.53.64 16 .64 31.36 7.53 31.36 16 24.47 31.36 16 31.36zm0-30C7.927 1.36 1.36 7.927 1.36 16c0 8.072 6.567 14.64 14.64 14.64 8.072 0 14.64-6.567 14.64-14.64S24.072 1.36 16 1.36zm0 25c-5.712 0-10.36-4.647-10.36-10.36 0-5.712 4.647-10.36 10.36-10.36S26.36 10.287 26.36 16 21.713 26.36 16 26.36zm0-20c-5.315 0-9.64 4.325-9.64 9.64s4.325 9.64 9.64 9.64 9.64-4.324 9.64-9.64S21.315 6.36 16 6.36zm0 15A5.366 5.366 0 0 1 10.64 16 5.365 5.365 0 0 1 16 10.64 5.366 5.366 0 0 1 21.36 16 5.367 5.367 0 0 1 16 21.36zm0-10c-2.559 0-4.64 2.082-4.64 4.64s2.082 4.64 4.64 4.64 4.64-2.081 4.64-4.64-2.081-4.64-4.64-4.64zM16 17a1 1 0 1 0 0-2 1 1 0 0 0 0 2z"/>
</svg>
